HIERARCHY
ROOT Hips
{
  OFFSET 352.181 89.6817 215.948
  CHANNELS 6 Xposition Yposition Zposition Zrotation Xrotation Yrotation
  JOINT RightUpLeg
  {
    OFFSET -9.28908 -1.54242 -0.003762
    CHANNELS 3 Zrotation Xrotation Yrotation
    JOINT RightLeg
    {
      OFFSET 0.175992 -41.9066 0.16442
      CHANNELS 3 Zrotation Xrotation Yrotation
      JOINT RightFoot
      {
        OFFSET -0.850518 -41.676 1.19357
        CHANNELS 3 Zrotation Xrotation Yrotation
        End Site
        {
          OFFSET 0 -7.69 17.5
        }
      }
    }
  }
  JOINT LeftUpLeg
  {
    OFFSET 9.35911 -1.62184 0.0934226
    CHANNELS 3 Zrotation Xrotation Yrotation
    JOINT LeftLeg
    {
      OFFSET 0.11037 -41.8771 -4.76722e-05
      CHANNELS 3 Zrotation Xrotation Yrotation
      JOINT LeftFoot
      {
        OFFSET 0.784832 -42.2153 -2.4698
        CHANNELS 3 Zrotation Xrotation Yrotation
        End Site
        {
          OFFSET 0 -7.69 17.5
        }
      }
    }
  }
  JOINT Spine
  {
    OFFSET -0.0264112 14.3118 0.141242
    CHANNELS 3 Zrotation Xrotation Yrotation
    JOINT Spine1
    {
      OFFSET -0.0608006 9.71827 0.0702426
      CHANNELS 3 Zrotation Xrotation Yrotation
      JOINT Spine2
      {
        OFFSET 0.040197 10.1251 -0.0199022
        CHANNELS 3 Zrotation Xrotation Yrotation
        JOINT Spine3
        {
          OFFSET -0.018884 9.71791 0.0127475
          CHANNELS 3 Zrotation Xrotation Yrotation
          JOINT Neck
          {
            OFFSET -0.169577 10.3664 -0.0885607
            CHANNELS 3 Zrotation Xrotation Yrotation
            JOINT Head
            {
              OFFSET -0.26372 9.48406 0.127016
              CHANNELS 3 Zrotation Xrotation Yrotation
              End Site
              {
                OFFSET 0 15.95 0
              }
            }
          }
          JOINT RightShoulder
          {
            OFFSET -3.21308 6.8767 -0.0450237
            CHANNELS 3 Zrotation Xrotation Yrotation
            JOINT RightArm
            {
              OFFSET -12.7762 -0.0188046 -0.0629949
              CHANNELS 3 Zrotation Xrotation Yrotation
              JOINT RightForeArm
              {
                OFFSET -26.5383 -0.000218244 -0.103623
                CHANNELS 3 Zrotation Xrotation Yrotation
                JOINT RightHand
                {
                  OFFSET -25.8669 -0.047899 -0.0603739
                  CHANNELS 3 Zrotation Xrotation Yrotation
                  JOINT RightHandThumb1
                  {
                    OFFSET -2.48905 0.190105 3.12053
                    CHANNELS 3 Zrotation Xrotation Yrotation
                    JOINT RightHandThumb2
                    {
                      OFFSET -3.68274 0 0
                      CHANNELS 3 Zrotation Xrotation Yrotation
                      JOINT RightHandThumb3
                      {
                        OFFSET -2.55832 0 0
                        CHANNELS 3 Zrotation Xrotation Yrotation
                        End Site
                        {
                          OFFSET -2.194 0 0
                        }
                      }
                    }
                  }
                  JOINT RightInHandIndex
                  {
                    OFFSET -3.22368 0.508421 1.97842
                    CHANNELS 3 Zrotation Xrotation Yrotation
                    JOINT RightHandIndex1
                    {
                      OFFSET -5.21684 -0.091368 0.999158
                      CHANNELS 3 Zrotation Xrotation Yrotation
                      JOINT RightHandIndex2
                      {
                        OFFSET -3.61937 0 0
                        CHANNELS 3 Zrotation Xrotation Yrotation
                        JOINT RightHandIndex3
                        {
                          OFFSET -2.0521 0 0
                          CHANNELS 3 Zrotation Xrotation Yrotation
                          End Site
                          {
                            OFFSET -1.805 0 0
                          }
                        }
                      }
                    }
                  }
                  JOINT RightInHandMiddle
                  {
                    OFFSET -3.38211 0.517263 0.756737
                    CHANNELS 3 Zrotation Xrotation Yrotation
                    JOINT RightHandMiddle1
                    {
                      OFFSET -5.17411 -0.084 0.313895
                      CHANNELS 3 Zrotation Xrotation Yrotation
                      JOINT RightHandMiddle2
                      {
                        OFFSET -3.94947 0 0
                        CHANNELS 3 Zrotation Xrotation Yrotation
                        JOINT RightHandMiddle3
                        {
                          OFFSET -2.47579 0 0
                          CHANNELS 3 Zrotation Xrotation Yrotation
                          End Site
                          {
                            OFFSET -1.975 0 0
                          }
                        }
                      }
                    }
                  }
                  JOINT RightInHandRing
                  {
                    OFFSET -3.36516 0.537895 -0.128947
                    CHANNELS 3 Zrotation Xrotation Yrotation
                    JOINT RightHandRing1
                    {
                      OFFSET -4.63474 -0.022105 -0.478947
                      CHANNELS 3 Zrotation Xrotation Yrotation
                      JOINT RightHandRing2
                      {
                        OFFSET -3.44238 0 0
                        CHANNELS 3 Zrotation Xrotation Yrotation
                        JOINT RightHandRing3
                        {
                          OFFSET -2.3881 0 0
                          CHANNELS 3 Zrotation Xrotation Yrotation
                          End Site
                          {
                            OFFSET -1.857 0 0
                          }
                        }
                      }
                    }
                  }
                  JOINT RightInHandPinky
                  {
                    OFFSET -3.16105 0.469368 -1.20179
                    CHANNELS 3 Zrotation Xrotation Yrotation
                    JOINT RightHandPinky1
                    {
                      OFFSET -4.14105 -0.022105 -1.09053
                      CHANNELS 3 Zrotation Xrotation Yrotation
                      JOINT RightHandPinky2
                      {
                        OFFSET -2.75653 0 0
                        CHANNELS 3 Zrotation Xrotation Yrotation
                        JOINT RightHandPinky3
                        {
                          OFFSET -1.74189 0 0
                          CHANNELS 3 Zrotation Xrotation Yrotation
                          End Site
                          {
                            OFFSET -1.645 0 0
                          }
                        }
                      }
                    }
                  }
                }
              }
            }
          }
          JOINT LeftShoulder
          {
            OFFSET 3.21013 6.92813 0.031381
            CHANNELS 3 Zrotation Xrotation Yrotation
            JOINT LeftArm
            {
              OFFSET 12.8361 0.00272676 -0.00293476
              CHANNELS 3 Zrotation Xrotation Yrotation
              JOINT LeftForeArm
              {
                OFFSET 26.5005 -0.02636 0.00399578
                CHANNELS 3 Zrotation Xrotation Yrotation
                JOINT LeftHand
                {
                  OFFSET 25.9821 -0.0367196 0.00246136
                  CHANNELS 3 Zrotation Xrotation Yrotation
                  JOINT LeftHandThumb1
                  {
                    OFFSET 2.48905 0.190105 3.12053
                    CHANNELS 3 Zrotation Xrotation Yrotation
                    JOINT LeftHandThumb2
                    {
                      OFFSET 3.68274 0 0
                      CHANNELS 3 Zrotation Xrotation Yrotation
                      JOINT LeftHandThumb3
                      {
                        OFFSET 2.55832 0 0
                        CHANNELS 3 Zrotation Xrotation Yrotation
                        End Site
                        {
                          OFFSET 2.194 0 0
                        }
                      }
                    }
                  }
                  JOINT LeftInHandIndex
                  {
                    OFFSET 3.22368 0.508421 1.97842
                    CHANNELS 3 Zrotation Xrotation Yrotation
                    JOINT LeftHandIndex1
                    {
                      OFFSET 5.21684 -0.091368 0.999158
                      CHANNELS 3 Zrotation Xrotation Yrotation
                      JOINT LeftHandIndex2
                      {
                        OFFSET 3.61937 0 0
                        CHANNELS 3 Zrotation Xrotation Yrotation
                        JOINT LeftHandIndex3
                        {
                          OFFSET 2.0521 0 0
                          CHANNELS 3 Zrotation Xrotation Yrotation
                          End Site
                          {
                            OFFSET 1.805 0 0
                          }
                        }
                      }
                    }
                  }
                  JOINT LeftInHandMiddle
                  {
                    OFFSET 3.38211 0.517263 0.756737
                    CHANNELS 3 Zrotation Xrotation Yrotation
                    JOINT LeftHandMiddle1
                    {
                      OFFSET 5.17411 -0.084 0.313895
                      CHANNELS 3 Zrotation Xrotation Yrotation
                      JOINT LeftHandMiddle2
                      {
                        OFFSET 3.94947 0 0
                        CHANNELS 3 Zrotation Xrotation Yrotation
                        JOINT LeftHandMiddle3
                        {
                          OFFSET 2.47579 0 0
                          CHANNELS 3 Zrotation Xrotation Yrotation
                          End Site
                          {
                            OFFSET 1.975 0 0
                          }
                        }
                      }
                    }
                  }
                  JOINT LeftInHandRing
                  {
                    OFFSET 3.36516 0.537895 -0.128947
                    CHANNELS 3 Zrotation Xrotation Yrotation
                    JOINT LeftHandRing1
                    {
                      OFFSET 4.63474 -0.022105 -0.478947
                      CHANNELS 3 Zrotation Xrotation Yrotation
                      JOINT LeftHandRing2
                      {
                        OFFSET 3.44238 0 0
                        CHANNELS 3 Zrotation Xrotation Yrotation
                        JOINT LeftHandRing3
                        {
                          OFFSET 2.3881 0 0
                          CHANNELS 3 Zrotation Xrotation Yrotation
                          End Site
                          {
                            OFFSET 1.857 0 0
                          }
                        }
                      }
                    }
                  }
                  JOINT LeftInHandPinky
                  {
                    OFFSET 3.16105 0.469368 -1.20179
                    CHANNELS 3 Zrotation Xrotation Yrotation
                    JOINT LeftHandPinky1
                    {
                      OFFSET 4.14105 -0.022105 -1.09053
                      CHANNELS 3 Zrotation Xrotation Yrotation
                      JOINT LeftHandPinky2
                      {
                        OFFSET 2.75653 0 0
                        CHANNELS 3 Zrotation Xrotation Yrotation
                        JOINT LeftHandPinky3
                        {
                          OFFSET 1.74189 0 0
                          CHANNELS 3 Zrotation Xrotation Yrotation
                          End Site
                          {
                            OFFSET 1.645 0 0
                          }
                        }
                      }
                    }
                  }
                }
              }
            }
          }
        }
      }
    }
  }
}
MOTION
Frames: 2
Frame Time: 0.00833333
1.855322000000000116e+03 8.722549999999999670e+01 2.091090000000000089e+02 2.520649999999999835e+01 5.767749999999999488e+00 -1.139309999999999974e+02 2.791219999999999857e+01 -4.931949999999999079e+01 2.574830000000000041e+01 -8.260289999999999466e+00 1.590109999999999957e+01 -5.150999999999999801e+00 1.043219999999999814e+01 1.407550000000000168e+01 4.333950000000000102e+01 3.644889999999999475e+01 -2.606629999999999825e+01 2.201790000000000092e+01 -2.169320000000000093e+01 3.926209999999999667e+01 3.028879999999999484e+01 -6.794430000000001080e+00 -2.439859999999999829e+01 -6.447760000000000602e+00 -5.352000000000000313e+00 -2.358820000000000583e+00 -1.688569999999999993e+01 -1.279020000000000046e+00 -8.832800000000000651e-01 -4.190970000000000972e+00 -2.128169999999999895e+00 -1.539639999999999898e+00 -6.757679999999999687e+00 -5.610059999999998936e-01 -3.298500000000000321e-01 2.740619999999999834e+00 -7.941749999999998533e-01 -4.685660000000000380e+00 4.204419999999999646e+01 -8.919090000000000629e+00 6.995090000000000252e+00 2.628400000000000247e+01 7.641940000000000843e+00 4.144160000000000288e+00 -1.349250000000000060e+00 3.357200000000000273e+01 -6.488580000000001746e+01 -4.593460000000000321e+00 3.299080000000000013e+01 7.135159999999999947e+00 1.256039999999999992e+02 9.377349999999999852e+00 -1.521209999999999951e+01 7.819490000000000940e+00 2.818400000000000105e+01 1.072940000000000005e+01 1.915919999999999845e+01 1.877220000000000002e-14 0.000000000000000000e+00 -1.000000000000000000e+01 -9.178769999999999066e-15 -3.975689999999999725e-15 -1.000000000000000000e+01 1.590279999999999485e-15 -1.590280000000000274e-15 2.385419999999999228e-15 1.998179999999999978e+01 8.718970000000000331e-01 2.396399999999999864e+00 2.400000000000000000e+01 2.186630000000001376e-15 7.951389999999999226e-15 2.000000000000000000e+01 -3.180549999999999982e-15 7.951389999999999226e-15 1.590279999999999485e-15 -1.590280000000000274e-15 2.385419999999999228e-15 2.000000000000000000e+01 2.385420000000000017e-15 4.770830000000001834e-15 2.400000000000000000e+01 -3.180550000000000771e-15 -6.361109999999999741e-15 2.000000000000000000e+01 1.689669999999999706e-15 3.180549999999999982e-15 1.590279999999999485e-15 -1.590280000000000274e-15 2.385419999999999228e-15 1.997479999999999833e+01 -1.025649999999999951e+00 -2.819380000000000219e+00 2.400000000000000000e+01 -7.951389999999999226e-16 0.000000000000000000e+00 2.000000000000000000e+01 -1.113189999999999931e-14 6.361109999999999741e-15 1.590279999999999485e-15 -1.590280000000000274e-15 2.385419999999999228e-15 1.978150000000000119e+01 -3.009479999999999933e+00 -8.305149999999999366e+00 2.400000000000000000e+01 -3.180549999999999982e-15 -3.180549999999999982e-15 2.000000000000000000e+01 -1.033680000000000183e-14 1.033680000000000025e-14 6.566459999999999297e+00 -1.732169999999999987e+01 -5.194459999999999411e+01 -8.320819999999999439e+00 2.578870000000000218e+01 -1.149060000000000059e+02 3.745010000000000616e+01 -8.779460000000000264e+00 -3.478790000000000049e+01 -3.432900000000000063e+01 -8.576710000000000278e+00 -1.285599999999999810e+01 -2.818400000000000105e+01 1.072940000000000005e+01 -1.915919999999999845e+01 7.793099999999996412e-16 1.590279999999999485e-15 1.000000000000000000e+01 3.667139999999999868e-15 -4.770830000000000256e-15 1.000000000000000000e+01 -7.156249999999999484e-15 1.590280000000000274e-15 0.000000000000000000e+00 -1.998179999999999978e+01 8.718970000000000331e-01 -2.396399999999999864e+00 -2.400000000000000000e+01 5.168400000000000916e-15 -3.180549999999999982e-15 -2.000000000000000000e+01 -5.565969999999999999e-15 -1.431249999999999897e-14 -7.156249999999999484e-15 1.590280000000000274e-15 0.000000000000000000e+00 -2.000000000000000000e+01 -8.398650000000000897e-15 -7.951389999999999226e-15 -2.400000000000000000e+01 -2.385419999999999228e-15 1.590280000000000274e-15 -2.000000000000000000e+01 0.000000000000000000e+00 -4.770829999999999467e-15 -7.156249999999999484e-15 1.590280000000000274e-15 0.000000000000000000e+00 -1.997479999999999833e+01 -1.025649999999999951e+00 2.819380000000000219e+00 -2.400000000000000000e+01 5.565969999999999999e-15 1.590279999999999485e-15 -2.000000000000000000e+01 1.590280000000000274e-15 -6.361109999999999741e-15 -7.156249999999999484e-15 1.590280000000000274e-15 0.000000000000000000e+00 -1.978150000000000119e+01 -3.009479999999999933e+00 8.305149999999999366e+00 -2.400000000000000000e+01 -3.180550000000000376e-15 -3.180550000000000376e-15 -2.000000000000000000e+01 -4.770830000000000256e-15 -9.541660000000000512e-15
1.855331999999999880e+03 8.721309999999998297e+01 2.091200000000000045e+02 2.516239999999999810e+01 5.826760000000000161e+00 -1.141870000000000118e+02 2.816300000000000381e+01 -4.922070000000000078e+01 2.593000000000000682e+01 -8.243700000000000472e+00 1.595689999999999742e+01 -5.018139999999999823e+00 1.042600000000000016e+01 1.404390000000000072e+01 4.331510000000000105e+01 3.655559999999999832e+01 -2.590829999999999700e+01 2.218250000000000099e+01 -2.169109999999999872e+01 3.929100000000000392e+01 3.033569999999999922e+01 -6.777430000000000732e+00 -2.439630000000000365e+01 -6.447380000000000777e+00 -5.310740000000000904e+00 -2.350360000000000227e+00 -1.676490000000000080e+01 -1.269260000000000055e+00 -8.770960000000000978e-01 -4.161029999999999340e+00 -2.112299999999999400e+00 -1.528599999999999959e+00 -6.712400000000000588e+00 -5.608840000000000492e-01 -3.273859999999999548e-01 2.740559999999999441e+00 -7.930120000000002722e-01 -4.658710000000000129e+00 4.204110000000000014e+01 -8.908220000000001804e+00 7.026410000000000267e+00 2.629679999999999751e+01 7.731129999999999391e+00 4.117049999999998988e+00 -1.402060000000000084e+00 3.415630000000000166e+01 -6.473449999999999704e+01 -4.266690000000000538e+00 3.288060000000000116e+01 6.927760000000000140e+00 1.256470000000000056e+02 9.629310000000000258e+00 -1.521979999999999933e+01 8.044059999999998212e+00 2.818400000000000105e+01 1.072940000000000005e+01 1.915919999999999845e+01 3.234689999999999872e-14 7.156250000000001061e-15 -1.000000000000000000e+01 1.183279999999998985e-15 5.565969999999999999e-15 -1.000000000000000000e+01 -3.578119999999999853e-15 -6.361109999999998952e-15 3.180549999999999982e-15 1.998179999999999978e+01 8.718970000000000331e-01 2.396399999999999864e+00 2.400000000000000000e+01 4.969619999999999686e-15 7.951389999999999226e-15 2.000000000000000000e+01 -3.975689999999999527e-16 7.951389999999999226e-15 -3.578119999999999853e-15 -6.361109999999998952e-15 3.180549999999999982e-15 2.000000000000000000e+01 2.385420000000000805e-15 7.951389999999999226e-15 2.400000000000000000e+01 -1.192710000000000206e-15 0.000000000000000000e+00 2.000000000000000000e+01 -4.969620000000001264e-16 4.770830000000000256e-15 -3.578119999999999853e-15 -6.361109999999998952e-15 3.180549999999999982e-15 1.997479999999999833e+01 -1.025649999999999951e+00 -2.819380000000000219e+00 2.400000000000000000e+01 -3.975690000000000513e-15 1.590280000000000274e-15 2.000000000000000000e+01 -1.033680000000000025e-14 7.951389999999999226e-15 -3.578119999999999853e-15 -6.361109999999998952e-15 3.180549999999999982e-15 1.978150000000000119e+01 -3.009479999999999933e+00 -8.305149999999999366e+00 2.400000000000000000e+01 -3.180550000000000376e-15 -3.975689999999998936e-15 2.000000000000000000e+01 -8.746530000000000547e-15 1.113189999999999773e-14 6.525080000000000879e+00 -1.727710000000000079e+01 -5.190419999999999590e+01 -8.280500000000001748e+00 2.577749999999999631e+01 -1.148649999999999949e+02 3.720319999999999538e+01 -8.662359999999999616e+00 -3.471779999999999688e+01 -3.478829999999999956e+01 -8.627909999999999968e+00 -1.272070000000000078e+01 -2.818400000000000105e+01 1.072940000000000005e+01 -1.915919999999999845e+01 -1.312029999999999746e-15 0.000000000000000000e+00 1.000000000000000000e+01 2.859739999999999804e-15 -4.770830000000000256e-15 1.000000000000000000e+01 -7.156249999999999484e-15 -3.975690000000000513e-16 -1.590280000000000274e-15 -1.998179999999999978e+01 8.718970000000000331e-01 -2.396399999999999864e+00 -2.400000000000000000e+01 5.565969999999999999e-15 -3.180549999999999982e-15 -2.000000000000000000e+01 -2.385420000000000411e-15 -1.272220000000000151e-14 -7.156249999999999484e-15 -3.975690000000000513e-16 -1.590280000000000274e-15 -2.000000000000000000e+01 -8.845920000000000767e-15 -6.361110000000000530e-15 -2.400000000000000000e+01 -7.951389999999995282e-16 -1.590279999999999485e-15 -2.000000000000000000e+01 1.590280000000000274e-15 -4.770830000000000256e-15 -7.156249999999999484e-15 -3.975690000000000513e-16 -1.590280000000000274e-15 -1.997479999999999833e+01 -1.025649999999999951e+00 2.819380000000000219e+00 -2.400000000000000000e+01 5.565969999999999210e-15 0.000000000000000000e+00 -2.000000000000000000e+01 4.770829999999999467e-15 -7.951390000000000804e-15 -7.156249999999999484e-15 -3.975690000000000513e-16 -1.590280000000000274e-15 -1.978150000000000119e+01 -3.009479999999999933e+00 8.305149999999999366e+00 -2.400000000000000000e+01 1.590279999999999485e-15 -9.541660000000000512e-15 -2.000000000000000000e+01 0.000000000000000000e+00 -9.541660000000002090e-15
